<?xml version="1.0" encoding="iso-8859-1"?>
<!DOCTYPE svg PUBLIC "-//W3C//DTD SVG 1.1//EN" "http://www.w3.org/Graphics/SVG/1.1/DTD/svg11.dtd">
<svg 
 version="1.1" xmlns="http://www.w3.org/2000/svg" xmlns:xlink="http://www.w3.org/1999/xlink" x="0px" y="0px" width="512px"
	 height="512px" viewBox="0 0 512 512" style="enable-background:new 0 0 512 512;" xml:space="preserve"
><g id="afcae5a789ccd549f9c6e2a2f814e5b6"><g></g><g fill="#3f9d2f"><path style="display: inline;" d="M444.935,31.428l-5.925-10.887c0,0-25.699,10.343-35.735,10.343
		C380.271,30.892,279.615,0.5,262.005,0.5c-18.442,0-121.479,32.505-146.488,32.505c-12.388,0-42.358-12.793-42.358-12.793
		l-6.095,11.216C43.714,79.608,29.65,129.341,29.65,183.131C29.65,420.967,222.416,511.5,256,511.5
		c17.61,0,74.017-17.149,126.92-68.115c45.354-43.693,99.43-124.315,99.43-260.254C482.35,123.332,466.298,71.897,444.935,31.428z
		 M356.745,416.218c-45.926,44.242-90.879,56.422-100.222,57.49c-25.534-4.469-189.148-82.357-189.148-290.577
		c0-38.219,8.186-76.384,24.963-116.13c8.192,2.207,16.326,3.729,23.179,3.729c17.066,0,46.263-7.3,92.321-19.325
		c19.363-5.055,45.543-11.889,54.175-13.082c8.51,1.153,34.276,7.637,53.342,12.434c48.235,12.136,72.631,17.854,87.909,17.854
		c4.978,0,10.721-0.856,16.715-2.226c16.165,36.487,24.646,76.471,24.646,116.747C444.625,305.803,396.835,377.595,356.745,416.218z
		 M256,324.153l-81.603,43.357l15.584-91.84l-66.019-65.039l91.24-13.402L256,113.675l40.805,83.555l91.232,13.402l-66.019,65.039
		l15.588,91.84L256,324.153z"></path></g></g></svg>